<svg width="622" height="261" viewBox="0 0 622 261" fill="none" xmlns="http://www.w3.org/2000/svg">
<path d="M215.26 95.4091C210.818 90.8916 205.106 88.6253 198.111 88.6253H178.696L152.875 105.048C154.778 106.318 156.048 107.874 156.682 109.687C157.317 111.515 157.634 113.373 157.634 115.277V177.661C157.634 188.932 160.535 197.936 166.322 204.69C172.108 211.443 178.107 216.55 184.301 220.04L221.923 188.614V111.47C221.923 105.275 219.702 99.9266 215.26 95.394V95.4091ZM200.498 121.487V202.832L197.884 204.584C192.49 202.197 188.003 198.828 184.437 194.461C180.872 190.095 179.074 185.215 179.074 179.821V107.209H186.689C191.297 107.209 194.742 108.01 197.038 109.596C199.335 111.183 200.498 113.57 200.498 116.742V121.502V121.487Z" fill="black"/>
<path d="M313.59 194.341L308.347 200.294C305.809 199.493 303.709 197.906 302.031 195.534C300.369 193.147 299.538 190.851 299.538 188.63V111.968C299.538 105.774 297.317 100.425 292.875 95.8929C288.433 91.3754 282.722 89.1091 275.727 89.1091H257.626L231.442 105.774C233.346 107.043 234.615 108.599 235.25 110.412C235.884 112.24 236.202 114.099 236.202 116.002V189.566C236.202 195.126 237.546 200.671 240.251 206.231C242.955 211.791 247.639 216.626 254.302 220.751L269.064 202.651C265.256 200.596 262.401 198.571 260.497 196.577C258.593 194.598 257.641 192.256 257.641 189.551V107.647H264.304C268.913 107.647 272.357 108.448 274.669 110.035C276.966 111.621 278.129 114.008 278.129 117.181V188.615C278.129 194.326 279.277 199.614 281.574 204.448C283.871 209.298 288.675 214.496 295.973 220.041L315.494 195.988L313.59 194.326V194.341Z" fill="black"/>
<path d="M377.877 95.4091C373.435 90.8916 367.724 88.6253 360.729 88.6253H341.314L315.493 105.048C317.396 106.318 318.666 107.874 319.3 109.687C319.935 111.515 320.252 113.373 320.252 115.277V177.661C320.252 188.932 323.153 197.936 328.94 204.69C334.726 211.443 340.725 216.55 346.919 220.04L384.54 188.614V111.47C384.54 105.275 382.319 99.9266 377.877 95.394V95.4091ZM363.116 121.487V202.832L360.502 204.584C355.108 202.197 350.621 198.828 347.055 194.461C343.49 190.095 341.692 185.215 341.692 179.821V107.209H349.306C353.915 107.209 357.36 108.01 359.656 109.596C361.953 111.183 363.116 113.57 363.116 116.742V121.502V121.487Z" fill="black"/>
<path d="M469.061 145.056C467.354 112.799 408.112 60.9766 408.459 26.9519C408.489 23.9453 409.653 20.6365 412.025 17.0708C414.412 13.5052 417.222 10.4835 420.471 8.02077C423.719 5.55806 426.454 4.33426 428.69 4.33426C429.793 4.33426 430.745 4.89328 431.546 5.99621C431.863 6.3135 432.225 6.58545 432.618 6.82719C433.011 7.06893 433.374 7.1898 433.691 7.1898C434.643 7.1898 435.429 6.91784 436.078 6.35882C436.713 5.7998 437.03 5.13502 437.03 4.33426C437.03 3.53351 436.592 2.79318 435.716 2.06797C434.839 1.35786 433.842 0.995254 432.739 0.995254C428.932 0.844168 423.931 3.09536 417.736 7.77903C411.541 12.4627 406.102 18.6119 401.433 26.2267C396.75 33.8414 394.211 41.8641 394.408 50.2796C394.695 62.0644 401.041 74.9672 409.456 88.4441C409.033 89.2146 408.595 89.9852 408.097 90.7406C405.075 95.3487 396.629 98.6877 390.918 100.758C396.04 102.359 398.82 108.403 398.82 113.358V170.771C398.82 182.843 401.433 192.951 406.676 201.124C411.919 209.298 420.017 215.614 430.956 220.055C444.6 206.412 454.36 193.434 460.237 181.12C466.1 168.822 469.665 156.78 469.046 145.056H469.061ZM450.13 188.75C448.468 194.552 445.325 199.976 440.732 205.053C433.268 200.444 427.995 195.806 424.898 191.122C421.8 186.439 420.259 179.655 420.259 170.771V104.761C434.87 126.185 450.613 148.41 452.638 169.336C453.333 176.452 451.807 182.949 450.145 188.735L450.13 188.75Z" fill="black"/>
<path d="M529.542 203.376C520.809 200.989 513.632 197.861 507.996 193.978C502.361 190.095 499.55 185.925 499.55 181.483V172.66C506.5 163.202 533.787 138.62 538.834 134.586L540.979 133.151L528.605 89.1091L472.415 109.823C474.636 111.258 476.147 112.966 476.932 114.945C477.718 116.939 478.126 119.825 478.126 123.632V183.629C478.126 190.141 480.709 196.29 485.862 202.076C491.014 207.878 497.798 212.35 506.213 215.523L519.313 220.282L539.544 196.003L537.64 194.341L529.542 203.391V203.376ZM509.311 101L520.914 143.032C517.364 147.126 506.576 157.763 499.505 165.483L499.309 104.807L509.311 101Z" fill="black"/>
<path d="M136.693 203.376C127.96 200.989 120.784 197.861 115.148 193.978C109.512 190.095 106.702 185.925 106.702 181.483V172.66C113.652 163.202 140.939 138.62 145.985 134.586L148.131 133.151L135.757 89.1091L79.5663 109.823C81.7874 111.258 83.2983 112.966 84.0839 114.945C84.8696 116.939 85.2775 119.825 85.2775 123.632V183.629C85.2775 190.141 87.8612 196.29 93.0133 202.076C98.1655 207.878 104.949 212.35 113.365 215.523L126.465 220.282L146.695 196.003L144.792 194.341L136.693 203.391V203.376ZM116.462 101L128.066 143.032C124.515 147.126 113.728 157.763 106.657 165.483L106.46 104.807L116.462 101Z" fill="black"/>
<path d="M612.761 160.059C608.078 153.864 601.294 146.416 592.41 137.683C587.333 132.924 583.118 128.633 579.794 124.825C579.31 121.653 579.627 118.631 580.746 115.775C581.849 112.92 583.526 110.623 585.747 108.871C587.968 107.118 590.355 106.257 592.893 106.257C596.55 106.257 599.949 108.281 603.137 112.331C606.31 116.38 608.773 122.604 610.51 131.02C611.145 128.965 611.613 124.191 611.946 116.727C612.263 109.43 612.731 103.749 613.381 99.6997C614.015 95.6506 615.285 93.1577 617.188 92.2058C612.897 89.5014 608.304 88.1567 603.379 88.1567C598.453 88.1567 594.177 89.4711 590.053 92.0849C585.928 94.6987 582.71 98.5514 580.413 103.628C578.117 108.704 577.119 114.733 577.437 121.728C574.732 118.389 572.632 115.111 571.121 111.847C569.61 108.599 568.855 105.381 568.855 102.208C568.855 97.7658 569.61 94.321 571.121 91.8583C572.632 89.3956 576.243 88.6402 581.954 89.592L582.438 88.3984C576.56 87.1293 571.121 87.4466 566.135 89.3503C561.134 91.254 557.13 94.2757 554.108 98.4004C551.087 102.525 549.591 107.058 549.591 111.968C549.591 118.162 551.767 124.191 556.133 130.068C560.5 135.945 566.891 143.001 575.306 151.265C583.556 159.515 589.75 166.419 593.875 171.979C598 177.539 600.07 183.175 600.07 188.886C600.07 193.963 597.849 198.963 593.407 203.889C592.289 197.226 589.917 191.666 586.26 187.224C582.604 182.782 577.286 177.706 570.305 171.995C565.229 167.87 560.983 164.108 557.568 160.678C554.154 157.264 551.102 153.335 548.397 148.893L547.204 150.087C548.941 151.991 550.422 155.481 551.616 160.557C552.809 165.634 553.051 171.118 552.326 176.98C551.616 182.858 549.425 188.01 545.783 192.452L546.735 193.887C550.074 189.596 554.864 188.131 561.134 189.475C567.404 190.82 573.161 194.597 578.389 200.792C583.631 206.986 586.638 214.601 587.439 223.651L587.681 223.893C590.385 217.23 594.026 210.718 598.635 204.372C603.243 198.027 607.685 192.663 611.976 188.297C616.267 183.93 619.273 181.271 621.026 180.319C620.225 173.022 617.491 166.268 612.807 160.089L612.761 160.059Z" fill="black"/>
<path d="M72.4053 84.5774C67.0417 89.0949 58.2785 88.3848 45.874 88.3848H27.1692L0.985352 105.05C2.88908 106.319 4.15823 107.875 4.79281 109.688C5.42738 111.516 5.74467 113.374 5.74467 115.278V177.662C5.74467 188.933 8.64559 197.938 14.4323 204.691C20.219 211.445 26.2173 216.551 32.412 220.041L49.5606 205.718V225.284C49.5606 228.774 49.0469 232.189 48.0195 235.528C46.9921 238.867 45.5114 241.722 43.6077 244.094C42.6558 240.121 39.6794 236.51 34.6783 233.262C29.6772 230.013 23.9963 228.381 17.6505 228.381L3.13082 245.53C8.37363 244.729 13.0876 245.454 17.303 247.675C21.5033 249.896 26.3079 254.096 31.7018 260.291L32.412 259.581C57.4928 233.398 70.0332 212.276 70.0332 196.245V111.486C70.0332 106.243 68.4166 101.605 65.2286 97.5557C68.1899 95.3801 73.9162 90.3187 72.4053 84.5774ZM48.5936 121.488V202.833L45.9798 204.585C40.5859 202.198 36.0985 198.829 32.5328 194.463C28.9671 190.096 27.1692 185.216 27.1692 179.822V105.065H34.7841C46.1913 105.065 48.5936 108.978 48.5936 116.729V121.488Z" fill="black"/>
</svg>
