<svg width="1920" height="1210" viewBox="0 0 1920 1210" fill="none" xmlns="http://www.w3.org/2000/svg">
<path d="M599.57 670.88L334.95 448.84V385.47C334.95 373.73 339.71 363.1 347.41 355.41C355.1 347.71 365.73 342.95 377.47 342.95C380.54 342.95 383.54 343.28 386.43 343.9C387.04 344.03 387.64 344.17 388.24 344.33C411.98 350.11 435.17 359.87 456.89 373.79C486.24 392.61 509.8 417.07 527.06 444.84C532.94 372.22 573.06 309.22 631.32 272.08H405.82C365.44 272.08 331.64 300.22 322.95 337.96C321.53 344.12 320.78 350.53 320.78 357.12V436.96L262.99 388.46C233.12 363.39 224.83 322.16 240.16 288.29L237.73 286.25L82.85 470.82L-26.47 601.11L-24.72 602.58C-10.59 592.03 6.22998 586.37 23.28 585.79C44.65 601.24 58.56 626.37 58.56 654.76H58.57V966.57C58.57 1009.62 23.67 1044.52 -19.39 1044.52C-62.45 1044.52 -97.34 1009.62 -97.34 966.57C-97.34 960.28 -96.57 954.17 -95.17 948.31L-107.09 938.31C-109.96 947.22 -111.51 956.71 -111.51 966.58C-111.51 1017.46 -70.27 1058.71 -19.39 1058.71C15.59 1058.71 46.02 1039.21 61.62 1010.49C70.11 995.21 80.14 980.5 91.73 966.58C91.97 966.28 92.22 965.99 92.47 965.69C107.85 947.36 125.06 931.46 143.61 918.06C155.54 909.42 168.02 901.81 180.93 895.25C158.41 879.95 143.61 854.13 143.61 824.85V658.35L320.77 807.01V902.72C305.55 929.47 281.88 950.79 253.38 963.04C281.88 975.27 305.55 996.59 320.77 1023.35V1129.57H334.94V1023.12C350.17 996.47 373.79 975.24 402.21 963.03C373.79 950.83 350.16 929.59 334.94 902.94V818.9L417.35 888.05C448.18 913.92 456.01 956.98 438.65 991.41L440.08 992.61C501.4 912.99 524.05 829.56 490.23 801.18L334.94 670.88V596.88L526.67 757.76C557.5 783.63 565.33 826.69 547.97 861.13L549.4 862.33C610.72 782.71 633.37 699.27 599.55 670.9L599.57 670.88ZM320.79 658.98L153.67 518.75C134.38 502.57 124.1 479.64 123.35 456.31C146.46 452.99 170.82 459.14 190.11 475.32L320.79 584.97V658.97V658.98Z" stroke="#00EECC" stroke-width="2" stroke-miterlimit="10"/>
<path d="M1118.4 477.58C1169.89 496.32 1226.82 469.77 1245.56 418.28L1274.64 338.37L1261.32 333.52L1246.79 373.43C1238.75 395.52 1214.32 406.91 1192.23 398.87L801.67 256.72C776.52 247.57 748.34 255.77 732.04 277L617.32 426.37C599.84 449.13 600.48 480.97 618.86 503.02L658.21 550.21C668.21 562.2 666.62 580.02 654.66 590.06L600.26 635.7L609.37 646.56L685.37 582.79L738.69 538.05C751.05 527.68 752.28 509.09 741.38 497.18L695.18 446.71C674.13 423.72 673.54 388.35 694.52 364.6C711.33 345.58 738.36 339.26 762.21 347.95L783.12 355.56V655.43C767.89 682.13 744.25 703.4 715.79 715.63C744.25 727.84 767.9 749.12 783.12 775.82V830.53C744.86 824.18 704.33 837.63 677.6 869.49C664.78 884.77 656.67 902.44 653.13 920.73C662.16 910.48 673.52 903.45 685.75 899.76C707.87 893.07 732.83 897.33 751.85 913.3C753 914.27 754.12 915.26 755.19 916.29C755.19 916.29 766.71 926.72 783.12 941.78V1129.57H797.29V954.82C832.7 987.47 879.42 1031.25 891.48 1045.85C911.75 1070.38 930.03 1094.42 933.42 1123.72C935.09 1120.95 936.68 1118.14 938.18 1115.3C931.09 1100.65 926.89 1084.88 925.65 1068.87C925.49 1066.74 925.37 1064.6 925.32 1062.46C924.53 1034.97 932.47 1007.13 949.51 983.42C951.4 980.77 953.42 978.17 955.55 975.63C963.09 966.65 971.58 958.95 980.77 952.55C980.79 952.54 980.81 952.53 980.83 952.52C984.03 950.63 987.19 948.63 990.3 946.51C995 943.31 999.6 939.84 1004.05 936.1C1076.01 875.72 1085.4 768.44 1025.02 696.49L977.16 639.46L967.47 627.92L1003.8 594.03C1014.07 585.42 1026.5 581.06 1038.93 580.77C1055.54 580.4 1072.16 587.3 1083.67 601.02C1093.92 613.23 1098.13 628.5 1096.62 643.2L1101.24 645.87L1158.27 547.08C1124.9 513.27 1070.6 510.23 1033.56 541.3L1018.29 556.17L957.19 615.66L888.36 533.63C863.2 503.64 867.12 458.95 897.1 433.79C900.82 430.67 904.76 427.99 908.87 425.77C909.21 425.58 909.55 425.4 909.9 425.22C909.46 425.29 909.03 425.37 908.59 425.44C889.76 428.75 871.51 436.87 855.77 449.96C855.65 450.06 855.53 450.16 855.41 450.26C855.33 450.32 855.26 450.39 855.18 450.46C807.42 490.74 801.25 562.11 841.44 610L894.96 673.79L874.39 693.37C874.31 693.44 874.22 693.51 874.14 693.58C860.74 704.7 841.21 704.11 828.01 692.74C815.76 682.19 805.34 669.57 797.28 655.44V360.72L1118.37 477.59L1118.4 477.58ZM808.2 759.46C819.37 744.98 834.26 733.93 850.93 726.44C858.49 723.05 865.71 718.57 872.37 712.98L903.52 683.95L987.22 783.71C1027.48 831.68 1021.22 903.2 973.25 943.45C973.15 943.53 973.05 943.62 972.95 943.7C958.75 955.54 937.3 952.75 926.62 937.66C918.37 926.01 908.51 915.22 897.07 905.62L837.35 855.52C825.21 845.33 811.57 838.13 797.31 833.82V775.83C800.57 770.11 804.2 764.64 808.2 759.46Z" stroke="#00EECC" stroke-width="2" stroke-miterlimit="10"/>
<path d="M2006 2.20996L1998.44 9.76996C2008.9 22.79 2015.17 39.32 2015.17 57.33C2015.17 83.46 2001.98 106.51 1981.89 120.19C1979.66 121.71 1977.34 123.12 1974.94 124.4C1972.78 125.7 1970.61 126.98 1968.44 128.25C1957.26 134.8 1945.92 141.07 1934.43 147.07C1885.24 172.77 1833.34 193.4 1779.49 208.53L1389.26 318.15C1365.24 324.9 1345.4 341.85 1334.98 364.52L1230.93 590.99H1245.11C1276.6 548.04 1313.47 509.61 1354.68 476.6C1395.89 443.59 1441.44 416 1490.28 394.77C1500.6 390.28 1511.01 385.89 1521.48 381.57V453.72L1380.72 535.4C1308.61 577.24 1305.69 680.32 1375.32 726.17L1420.82 756.14C1462.25 783.42 1496.57 819.7 1521.48 861.9V1129.57H1535.65V664.66C1550.88 637.96 1574.52 616.69 1602.98 604.46C1574.52 592.25 1550.87 570.97 1535.65 544.27V486.9L1606.52 439.68V978.31C1659.75 1038.77 1691.56 1119.22 1691.56 1207.52H1705.73V373.57L1811.1 303.35C1877.88 258.85 1940.35 208.45 1997.8 152.82C1998.46 152.2 1999.11 151.57 1999.74 150.93C2016.44 134.23 2027.79 112.2 2031.01 87.6C2031.63 82.88 2031.95 78.06 2031.95 73.17C2031.95 46.12 2022.18 21.36 2005.99 2.20996H2006ZM1521.49 544.26C1506.26 570.96 1482.62 592.23 1454.16 604.46C1482.62 616.67 1506.27 637.95 1521.49 664.65V691.96L1450.08 674.1C1421.25 666.89 1401.02 640.99 1401.02 611.27C1401.02 600.5 1403.7 590.07 1408.62 580.84C1413.53 571.61 1420.68 563.56 1429.62 557.55L1521.49 496.33V544.26ZM1797.87 293.33L1535.67 445.48V375.77C1624.58 339.88 1717.19 309.42 1797.87 279.16V293.33Z" stroke="#00EECC" stroke-width="2" stroke-miterlimit="10"/>
</svg>
