<svg width="240" height="64" viewBox="0 0 240 64" fill="none" xmlns="http://www.w3.org/2000/svg">
<rect width="240" height="64" fill="black"/>
<path d="M50.5619 16.9998C61.9661 16.9998 67.5068 23.8409 67.5068 35.9994C67.5068 36.7166 67.416 38.152 67.2754 38.9994H45.5786C46.2291 41.6964 48.7742 43.2056 51.921 43.2056C55.1325 43.2056 57.8857 40.9841 58.5363 39.9999L66.5106 46C65.7208 47.712 60.9896 53.9992 51.5592 53.9992C39.6965 53.9992 32.6206 45.1134 32.6206 34.9996C32.6203 25.1426 39.9585 16.9998 50.5619 16.9998ZM55.5411 31.9929C55.3906 29.8959 53.8557 26.9996 50.5598 26.9996C47.0263 26.9996 45.7277 30.2385 45.5786 31.9929H55.5411Z" fill="white"/>
<path d="M206.055 16.9998C217.459 16.9998 223 23.8409 223 35.9994C223 36.7166 222.909 38.152 222.768 38.9994H201.071C201.722 41.6964 204.267 43.2056 207.414 43.2056C210.625 43.2056 213.378 40.9841 214.029 39.9999L222.003 46C221.214 47.712 216.482 53.9992 207.052 53.9992C195.19 53.9992 188.114 45.1134 188.114 34.9996C188.113 25.1426 195.452 16.9998 206.055 16.9998ZM211.034 31.9929C210.884 29.8959 209.348 26.9996 206.052 26.9996C202.519 26.9996 201.22 30.2385 201.071 31.9929H211.034Z" fill="white"/>
<path d="M88.4391 53.9999C77.4938 53.9999 69.5005 46.5097 69.5005 35.9997C69.5005 25.4795 77.4938 17.0001 88.4384 17.0001C99.3724 17.0001 107.377 25.4795 107.377 35.9997C107.377 46.5094 99.3731 53.9999 88.4391 53.9999ZM88.4387 42.9999C91.9062 42.9999 94.4193 40.081 94.4193 35.5383C94.4193 30.985 91.9065 28.0001 88.4387 28.0001C84.972 28.0001 82.4581 30.985 82.4581 35.5383C82.4581 40.081 84.9716 42.9999 88.4387 42.9999Z" fill="white"/>
<path d="M143.26 30.0001V52.9992H130.302V31.9997C130.302 29.3669 128.405 27.9999 126.315 27.9999C123.829 27.9999 122.328 30.0199 122.328 31.9997V52.9992H110.367V17.9993H122.328V21.2953C123.576 19.5191 127.042 16.9995 131.299 16.9995C139.492 16.9999 143.26 21.9839 143.26 30.0001Z" fill="white"/>
<path d="M161.202 17.9998H148.243V52.9997H161.202V17.9998Z" fill="white"/>
<path d="M168.04 10H180.001V17.9996H185.982V28.0002H180.001V40.2391C180.001 42.6786 182.765 43 184.728 43C185.187 43 185.981 43 185.981 43V52.9995C185.981 52.9995 184.145 54 180.997 54C172.09 54 168.04 50.3325 168.04 40.9994V27.9998H165.049V17.9993H168.04V10H168.04Z" fill="white"/>
<path d="M161.694 10C161.694 13.8661 158.57 16.9998 154.717 16.9998C150.863 16.9998 147.74 13.8661 147.74 10H161.694Z" fill="white"/>
<path d="M25.9708 40.2388L25.9716 27.9998H29.9577V17.9996H25.9708V10H17V50.8483C19.1221 53.0383 22.4085 54 26.9681 54C30.1155 54 31.9514 52.9995 31.9514 52.9995V42.9996C31.9514 42.9996 31.1567 42.9996 30.6982 42.9996C28.735 42.9996 25.9708 42.6786 25.9708 40.2388Z" fill="white"/>
</svg>
